<?xml version="1.0" encoding="UTF-8"?><svg id="a" xmlns="http://www.w3.org/2000/svg" viewBox="0 0 1000 1000"><defs><style>.c{fill:#f2f2f2;}.c,.d{stroke-width:0px;}.d{fill:#1a1a1a;}</style></defs><rect class="c" width="1000" height="1000"/><g id="b"><path class="d" d="M397.34,124.76c85.39-23.19,177.9-19.53,261.07,10.74,64.21,23.21,122.66,62.02,169.14,112,36.98,39.64,66.45,86.28,86.24,136.75,26.61,67.47,35.49,141.7,26.29,213.6-2.26,18.55-6.19,36.84-10.56,54.99,1.25-8.74,3.57-17.3,4.83-26.05,8.05-48.39,7.82-98.15-.74-146.45-8.44-47.66-25.07-93.84-48.97-135.92-27.43-48.44-64.39-91.45-108.12-125.89-59.83-47.33-132.52-78.24-208.17-88.22-47.57-6.36-96.19-4.79-143.22,4.76-43.72,8.85-86.03,24.64-124.86,46.58-55.8,31.43-104.38,75.54-141.1,128-36.47,51.91-61.17,112.05-71.59,174.64-8.82,52.6-7.8,106.85,3.02,159.08.78,4.21,2.05,8.33,2.45,12.62-11.62-44.32-16.76-90.38-14.28-136.15,3.31-66.61,22.4-132.36,55.32-190.36,34.22-60.52,83.25-112.56,141.6-150.34,37.41-24.29,78.6-42.73,121.65-54.38Z"/><path class="d" d="M758.66,287.12c2.81-2.06,7.65,0,7.46,3.7-.39,17.92-1.01,35.84-1.48,53.77-.18,3.89-.02,7.82-.61,11.69-16.38,97.87-32.54,195.78-48.98,293.64-6.05,20.31-12.52,40.52-18.82,60.76-1.06,4.76-9.01,3.96-9.15-.85.27-17.04.94-34.08,1.37-51.11.26-6.02-.06-12.12,1.25-18.04,15.72-94.25,31.38-188.51,47.11-282.76.66-4.1,1.2-8.24,2.59-12.17,5.79-18.49,11.52-36.99,17.27-55.48.41-1.18.86-2.46,1.99-3.15Z"/><path class="d" d="M437.68,408.1c5.74-3.96,12.46-6.99,19.56-6.97,15.68.01,31.37.01,47.05,0,12.72.08,25.26,5.41,34.29,14.35,9.39,9.26,14.77,22.35,14.78,35.53,8.98.01,17.97-.02,26.96.01,9.6.1,19.09,4.11,25.82,10.96,7.08,6.86,10.93,16.63,11.08,26.43,13.03-.2,24.9,11.2,24.82,24.29v165.06c-.13,5.12.63,10.47-1.49,15.31-3.15,8.06-11.61,13.47-20.22,13.19-121.72-.02-243.44.05-365.15-.03-10.93.13-20.81-9.46-20.86-20.4-.07-51.7-.01-103.4-.03-155.1-.09-18.38,7.3-36.68,20.22-49.77,12.85-13.38,31.15-21.39,49.72-21.58,25.03,0,50.05.02,75.08-.01,8.59.14,17.22-3.18,23.28-9.33,4.02-3.87,6.31-9.05,9.44-13.58,7.05-10.65,15.15-20.93,25.65-28.36M305.82,475.54c-3.81,1.09-7.96,3.26-9.26,7.29-1.11,3.45,1.46,6.79,4.31,8.46,5.83,3.46,13.22,3.79,19.58,1.65,3.39-1.2,6.97-3.49,7.89-7.2.71-3.5-1.85-6.62-4.71-8.24-5.33-3.06-11.93-3.51-17.81-1.96M465.85,487.54c-31.49,5.14-59.88,25.75-74.77,53.94-11.2,20.71-14.92,45.3-10.51,68.41,5.52,30.3,25.36,57.49,52.35,72.24,22.36,12.46,49.39,16.16,74.28,10.21,29.38-6.78,55.2-27.05,68.95-53.86,11.55-22.11,14.66-48.44,8.67-72.66-7.02-29.3-27.5-54.94-54.4-68.47-19.74-10.09-42.73-13.52-64.57-9.81M343.56,530.12c-1.72.83-2.31,2.81-2.15,4.59.04,49.01-.05,98.01.04,147.01-.08,3.07,3.33,4.28,5.89,3.84,2.44.42,5.4-1.07,5.29-3.84.07-49.33.04-98.66.01-147.98.03-4.66-5.89-4.78-9.08-3.62Z"/><path class="d" d="M473.82,508.53c15.81-1.83,32.15.99,46.37,8.17,17.29,8.58,31.34,23.46,38.96,41.19,7.02,16.16,8.6,34.59,4.53,51.73-3.49,14.83-11.2,28.66-22.04,39.38-12.41,12.53-28.99,20.87-46.46,23.35-17.24,2.47-35.27-.51-50.63-8.79-17.53-9.28-31.5-25.07-38.49-43.63-6.09-15.86-7.02-33.62-2.75-50.06,4.29-16.69,14-31.91,27.29-42.87,12.21-10.17,27.42-16.7,43.22-18.47M471.77,539.43c-11.95,2.69-22.88,9.71-30.26,19.51-8.61,11.22-12.31,26.04-9.98,40,2.2,14.14,10.61,27.13,22.5,35.07,10.55,7.18,23.79,10.22,36.43,8.45,15-1.98,28.86-10.91,36.98-23.67,7.81-11.98,10.22-27.24,6.67-41.08-3.48-13.97-13.05-26.27-25.71-33.12-11.04-6.11-24.33-7.96-36.63-5.16Z"/></g></svg>